# xmcd
#
# Track frame offsets: 
#        150
#        24550
#        48780
#        68900
#        96792
#        119160
#        140925
#        162152
#        188130
#        206907
#
# Disc length: 3054 seconds
#
# Revision: 0
# Processed by: cddbd v1.5.2PL0 Copyright (c) Steve Scherf et al.
# Submitted via: ExactAudioCopy v1.0b3
#
DISCID=960bec0a
DTITLE=Phuong Mai - Chi Co Mot Nguoi
DYEAR=1993
DGENRE=
TTITLE0=May nhip cau tre
TTITLE1=Chi co mot nguoi
TTITLE2=Phuong Mai, Tuan Vu - Xin goi nhau la co nhan
TTITLE3=Vong gac dem suong
TTITLE4=Que huong moi goi
TTITLE5=Di chua Huong
TTITLE6=Giot mua thu
TTITLE7=Phuong Mai, Tuan Vu - Niem dau di vang
TTITLE8=Gui ve em
TTITLE9=Nguoi yeu co don
EXTD=
EXTT0=
EXTT1=
EXTT2=
EXTT3=
EXTT4=
EXTT5=
EXTT6=
EXTT7=
EXTT8=
EXTT9=
PLAYORDER=
